<svg width="21" height="21" viewBox="0 0 21 21" fill="none" xmlns="http://www.w3.org/2000/svg">
<path d="M20.5 4.19296L15.9 0.361801L14.61 1.88037L19.21 5.71153L20.5 4.19296ZM6.38 1.88037L5.1 0.361801L0.5 4.18304L1.79 5.70161L6.38 1.88037ZM11 6.45593H9.5V12.4111L14.25 15.2398L15 14.019L11 11.6667V6.45593ZM10.5 2.48581C5.53 2.48581 1.5 6.48571 1.5 11.4186C1.5 16.3514 5.52 20.3513 10.5 20.3513C15.47 20.3513 19.5 16.3514 19.5 11.4186C19.5 6.48571 15.47 2.48581 10.5 2.48581ZM10.5 18.3663C6.63 18.3663 3.5 15.2597 3.5 11.4186C3.5 7.57749 6.63 4.47087 10.5 4.47087C14.37 4.47087 17.5 7.57749 17.5 11.4186C17.5 15.2597 14.37 18.3663 10.5 18.3663Z" fill="#BBB7E0"/>
</svg>
