<svg width="19" height="20" viewBox="0 0 19 20" fill="none" xmlns="http://www.w3.org/2000/svg">
<path d="M16.6401 10.7625C16.6761 10.4648 16.7001 10.1551 16.7001 9.83352C16.7001 9.51194 16.6761 9.20227 16.6281 8.90451L18.6561 7.33235C18.8361 7.18942 18.8841 6.92739 18.7761 6.72492L16.8561 3.42575C16.7361 3.21136 16.4841 3.1399 16.2681 3.21136L13.8801 4.16419C13.3761 3.78306 12.8481 3.47339 12.2601 3.23518L11.9001 0.710189C11.8641 0.471982 11.6601 0.305237 11.4201 0.305237H7.58011C7.34011 0.305237 7.14811 0.471982 7.11211 0.710189L6.75211 3.23518C6.16411 3.47339 5.62411 3.79497 5.13211 4.16419L2.74411 3.21136C2.52811 3.12799 2.27611 3.21136 2.15611 3.42575L0.236107 6.72492C0.116107 6.9393 0.164107 7.18942 0.356107 7.33235L2.38411 8.90451C2.33611 9.20227 2.30011 9.52385 2.30011 9.83352C2.30011 10.1432 2.32411 10.4648 2.37211 10.7625L0.344106 12.3347C0.164106 12.4776 0.116107 12.7396 0.224107 12.9421L2.14411 16.2413C2.26411 16.4557 2.51611 16.5271 2.73211 16.4557L5.12011 15.5028C5.62411 15.884 6.15211 16.1936 6.74011 16.4319L7.10011 18.9568C7.14811 19.1951 7.34011 19.3618 7.58011 19.3618H11.4201C11.6601 19.3618 11.8641 19.1951 11.8881 18.9568L12.2481 16.4319C12.8361 16.1936 13.3761 15.8721 13.8681 15.5028L16.2561 16.4557C16.4721 16.539 16.7241 16.4557 16.8441 16.2413L18.7641 12.9421C18.8841 12.7277 18.8361 12.4776 18.6441 12.3347L16.6401 10.7625ZM9.50011 13.4066C7.52011 13.4066 5.90011 11.7987 5.90011 9.83352C5.90011 7.86831 7.52011 6.26041 9.50011 6.26041C11.4801 6.26041 13.1001 7.86831 13.1001 9.83352C13.1001 11.7987 11.4801 13.4066 9.50011 13.4066Z" fill="#BBB7E0"/>
</svg>
